<?xml version="1.0" standalone="no"?><!DOCTYPE svg PUBLIC "-//W3C//DTD SVG 1.1//EN" "http://www.w3.org/Graphics/SVG/1.1/DTD/svg11.dtd"><svg t="1653141171845" class="icon" viewBox="0 0 1024 1024" version="1.1" xmlns="http://www.w3.org/2000/svg" p-id="1807" xmlns:xlink="http://www.w3.org/1999/xlink" width="400" height="400"><defs><style type="text/css">@font-face { font-family: feedback-iconfont; src: url("//at.alicdn.com/t/font_1031158_u69w8yhxdu.woff2?t=1630033759944") format("woff2"), url("//at.alicdn.com/t/font_1031158_u69w8yhxdu.woff?t=1630033759944") format("woff"), url("//at.alicdn.com/t/font_1031158_u69w8yhxdu.ttf?t=1630033759944") format("truetype"); }
</style></defs><path d="M174.729533 250.112408 153.85818 224.429469c-57.222259 74.840522-88.73088 173.141362-88.419795 288.759613 0.356111 122.30658 36.246529 225.069035 100.370988 300.998355l19.9821-30.494525C123.019825 713.359031 80.496335 631.206986 80.183204 513.915629 79.896678 404.073942 119.159914 319.27972 174.729533 250.112408zM513.125637 944.292634c-110.218264 0-194.020902-42.394552-263.60163-98.455359l-27.177989 22.727631c74.620511 58.211796 173.002193 90.450035 288.88855 90.450035l2.053776 0c121.30067-0.413416 224.201272-34.6778 300.677037-99.634208l-27.033703-21.459754C715.806779 902.031111 629.596302 943.882288 513.125637 944.292634zM876.438223 232.884025l-23.482831 27.296693c51.961442 67.593468 91.173512 145.072073 91.501994 251.125481 0.346901 105.086383-40.707121 188.340529-95.850022 258.938424l22.975271 27.818579c57.366545-76.349899 87.344301-174.910659 86.977957-287.48355C958.278159 400.36548 929.122119 306.021765 876.438223 232.884025zM510.785336 64.759933C387.130038 65.135486 283.536658 101.915158 207.466122 167.538761l27.596522 21.011546c70.727855-63.650669 157.892053-108.674095 275.578406-109.071138l1.908466 0c119.41881 0 209.57004 47.064922 281.185101 113.424282l28.477588-20.512173C745.512335 103.374392 639.623679 64.759933 512.754177 64.759933L510.785336 64.759933z" p-id="1808"></path><path d="M670.934802 399.539672c-26.1598 132.417869-38.977733 179.478697-49.926086 191.013405-4.907777 5.076622-9.123798 5.997598-16.3422 5.997598-7.219425 0-26.171056 0-46.168506-1.843998 3.204995 7.843642 3.832282 20.299325 3.270487 29.067013 20.525476 1.38351 40.378639 1.38351 52.264341 0.460488 11.962449-1.38351 21.074991-4.614088 30.361495-14.301727 14.954597-16.609283 28.774347-69.669756 59.608609-224.693482 1.144056-4.1536 2.992147-15.22475 2.992147-15.22475L454.768531 370.014218c13.382798-17.994839 25.936719-36.449143 37.744649-55.827493l-28.76923-8.766664c-36.72032 63.210647-91.321892 122.728182-146.742109 160.100348 6.29538 5.53711 16.553001 17.071817 21.12104 22.145369 31.373545-23.069415 63.452147-53.058426 93.218078-88.12406L670.934802 399.541719zM539.706015 477.515604l-13.090133 78.434373L402.981051 555.949978l13.090133-78.434373L539.706015 477.515604zM437.582103 689.289845c-48.279586 0-55.775304-6.458085-51.616588-31.373545l12.319583-73.822332 152.510486 0 22.407336-134.26289L390.911154 449.831079l-34.725896 208.085222c-8.085142 48.444339 10.667967 60.441581 78.80174 60.441581l174.619016 0c60.011792 0 75.495438-17.071817 91.37101-77.05291-7.891737-1.38351-20.206204-5.997598-26.579355-11.072173-12.596899 48.444339-21.13639 59.056024-59.940161 59.056024L437.582103 689.288822z" p-id="1809"></path></svg>
