<?xml version="1.0" standalone="no"?><!DOCTYPE svg PUBLIC "-//W3C//DTD SVG 1.1//EN" "http://www.w3.org/Graphics/SVG/1.1/DTD/svg11.dtd"><svg t="1592562325048" class="icon" viewBox="0 0 1024 1024" version="1.1" xmlns="http://www.w3.org/2000/svg" p-id="3924" xmlns:xlink="http://www.w3.org/1999/xlink" width="64" height="64"><defs><style type="text/css"></style></defs><path d="M934.4 67.2c-25.6-19.2-64-25.6-102.4-19.2l-473.6 96C316.8 153.6 288 188.8 288 227.2v486.4c-22.4-16-51.2-25.6-80-25.6C128 688 64 752 64 832s64 144 144 144 144-64 144-144v-9.6-448l544-121.6v364.8c-22.4-16-51.2-25.6-80-25.6-80 0-144 64-144 144s64 144 144 144 144-64 144-144V124.8c0-22.4-9.6-41.6-25.6-57.6zM208 915.2c-44.8 0-80-35.2-80-80s35.2-80 80-80S288 790.4 288 835.2s-35.2 80-80 80z m608-96c-44.8 0-80-35.2-80-80s35.2-80 80-80 80 35.2 80 80-35.2 80-80 80zM896 188.8h-6.4L352 310.4V230.4c0-6.4 9.6-19.2 19.2-19.2l473.6-96c6.4 0 12.8-3.2 19.2-3.2 12.8 0 25.6 3.2 28.8 6.4 3.2 3.2 3.2 6.4 3.2 6.4v64z" p-id="3925"></path></svg>