<?xml version="1.0" standalone="no"?><!DOCTYPE svg PUBLIC "-//W3C//DTD SVG 1.1//EN" "http://www.w3.org/Graphics/SVG/1.1/DTD/svg11.dtd"><svg t="1595387124123" class="icon" viewBox="0 0 1024 1024" version="1.1" xmlns="http://www.w3.org/2000/svg" p-id="2874" xmlns:xlink="http://www.w3.org/1999/xlink" width="200" height="200"><defs><style type="text/css"></style></defs><path d="M511.293793 0C230.046897 0 0 227.751724 0 511.293793c0 283.506759 230.082207 511.258483 511.293793 511.258483 283.506759 0 511.258483-227.751724 511.258483-511.293793C1022.552276 227.751724 794.800552 0 511.258483 0z m-137.145379 67.407448l-27.895173 34.851311c0 2.330483-2.295172 2.330483-2.295172 4.660965-18.608552 25.529379-34.886621 55.790345-48.798897 88.275862 0 2.330483-2.330483 4.660966-2.330482 4.660966 0 2.330483-2.330483 4.660966-2.330483 6.991448a430.433103 430.433103 0 0 1-76.694069-48.834207c44.137931-41.807448 99.928276-72.033103 160.344276-90.606345zM176.622345 188.204138c27.895172 23.234207 58.085517 44.137931 95.26731 60.416 0 2.330483-2.295172 4.660966-2.295172 4.660965-11.652414 34.85131-20.939034 74.363586-25.56469 113.875863 0 4.625655-2.330483 9.286621-2.330483 16.242758-2.330483 16.278069-4.660966 30.225655-4.660965 46.503724 0 6.956138 0 11.617103-2.330483 18.573242 0 13.947586 0 25.56469-2.295172 39.547586H46.468414a478.878897 478.878897 0 0 1 130.153931-299.784828z m-130.153931 346.288552h185.944276c0 13.912276 0 27.895172 2.295172 39.476965 0 6.991448 0 11.652414 2.330483 18.608552 2.330483 16.242759 2.330483 30.225655 4.660965 46.468414 0 4.660966 2.330483 9.321931 2.330483 16.278069 6.956138 39.512276 16.242759 79.024552 25.56469 113.875862 0 2.330483 2.295172 4.660966 2.295172 4.660965a442.721103 442.721103 0 0 0-95.26731 60.38069 478.878897 478.878897 0 0 1-130.153931-299.784828z m165.005241 329.975172a430.433103 430.433103 0 0 1 76.694069-48.798896c0 2.330483 2.330483 4.660966 2.330483 6.991448s2.330483 4.625655 2.330483 4.625655c13.947586 32.556138 30.190345 62.746483 48.798896 88.311172 0 2.330483 2.330483 2.330483 2.330483 4.660966l27.895172 34.85131c-58.120828-18.573241-113.875862-48.798897-160.379586-90.641655z m276.550621 109.250207c-65.076966-13.947586-120.832-79.024552-158.013793-174.291862 48.798897-18.608552 102.258759-27.895172 158.013793-30.225655v204.517517z m0-253.316414a595.085241 595.085241 0 0 0-174.291862 32.520828c-20.903724-65.076966-32.520828-139.440552-34.851311-220.760276h209.143173v188.204138z m0-232.412689H278.881103c2.330483-81.319724 13.947586-155.718621 34.851311-220.760276 53.459862 18.573241 111.58069 30.190345 174.291862 32.520827v188.239449z m0-232.37738a545.544828 545.544828 0 0 1-158.013793-30.225655c37.181793-97.597793 95.26731-162.674759 158.013793-174.291862V255.646897z m488.059586 232.37738h-185.944276c0-13.947586 0-27.895172-2.330483-39.512276 0-6.956138 0-11.617103-2.295172-18.573242-2.330483-16.242759-2.330483-30.225655-4.660965-46.468414 0-4.660966-2.330483-9.321931-2.330483-16.278068a1381.552552 1381.552552 0 0 0-25.56469-113.875863c0-2.330483-2.330483-4.660966-2.330483-4.660965a442.721103 442.721103 0 0 0 95.302621-60.38069 478.878897 478.878897 0 0 1 130.153931 299.784828zM811.078621 158.013793a430.433103 430.433103 0 0 1-76.694069 48.834207c0-2.330483-2.330483-4.660966-2.330483-6.991448s-2.330483-4.625655-2.330483-4.625655c-13.947586-32.556138-30.225655-62.781793-48.798896-88.311173 0-2.330483-2.330483-2.330483-2.330483-4.660965l-27.895173-34.851311c58.120828 18.573241 113.875862 48.798897 160.379587 90.606345z m-276.550621-109.214896c65.041655 13.947586 120.832 79.024552 158.013793 174.291862-48.798897 18.608552-102.258759 27.895172-158.013793 30.225655V48.798897z m0 253.316413a595.085241 595.085241 0 0 0 174.291862-32.520827c20.903724 65.041655 32.520828 139.440552 34.85131 220.760276h-209.143172V302.11531z m0 232.41269h209.143172c-2.330483 81.319724-13.947586 155.718621-34.85131 220.760276a595.085241 595.085241 0 0 0-174.291862-32.520828v-188.239448z m0 439.225379v-206.848a545.544828 545.544828 0 0 1 158.013793 30.225655c-37.181793 97.597793-92.972138 162.674759-158.013793 176.622345z m113.875862-18.608551l27.895172-34.851311c0-2.330483 2.295172-2.330483 2.295173-4.660965 18.608552-25.56469 34.85131-55.790345 48.798896-88.275862 0-2.330483 2.330483-4.660966 2.330483-4.660966 0-2.330483 2.330483-4.660966 2.330483-6.991448 27.895172 13.947586 53.459862 30.225655 76.694069 48.798896-44.137931 41.842759-99.928276 72.033103-160.344276 90.641656z m197.526069-120.832c-27.895172-23.234207-58.120828-44.137931-95.302621-60.416 0-2.330483 2.330483-4.660966 2.330483-4.660966 11.652414-34.85131 20.939034-74.363586 25.56469-113.875862 0-4.660966 2.330483-9.286621 2.330483-16.242759 2.330483-16.278069 4.660966-30.225655 4.660965-46.503724 0-6.956138 0-11.652414 2.295172-18.608551 0-13.912276 0-25.56469 2.330483-39.476966h185.944276a478.878897 478.878897 0 0 1-130.153931 299.784828z" fill="#ffffff" p-id="2875"></path></svg>