<?xml version="1.0" standalone="no"?><!DOCTYPE svg PUBLIC "-//W3C//DTD SVG 1.1//EN" "http://www.w3.org/Graphics/SVG/1.1/DTD/svg11.dtd"><svg t="1592561769812" class="icon" viewBox="0 0 1024 1024" version="1.1" xmlns="http://www.w3.org/2000/svg" p-id="2759" xmlns:xlink="http://www.w3.org/1999/xlink" width="64" height="64"><defs><style type="text/css"></style></defs><path d="M299.156 372.985h364.061L544.142 227.133c-10.206-12.502-8.345-30.91 4.157-41.117 12.502-10.206 30.91-8.346 41.117 4.156l158.02 193.555c15.582 19.086 2.002 47.704-22.637 47.704H299.156c-16.139 0-29.222-13.084-29.222-29.223 0-16.14 13.083-29.223 29.222-29.223zM724.8 652.215H360.74l119.074 145.85c10.207 12.503 8.345 30.912-4.156 41.118-12.503 10.208-30.911 8.346-41.117-4.155L276.519 641.473c-15.581-19.087-2.002-47.705 22.637-47.705H724.8c16.14 0 29.223 13.084 29.223 29.223 0 16.14-13.083 29.223-29.223 29.223z m240.755-140.27c0-250.461-203.102-453.5-453.61-453.5-250.484 0-453.498 203.015-453.498 453.5 0 250.507 203.038 453.61 453.499 453.61 250.484 0 453.61-203.126 453.61-453.61z m58.446 0C1024 794.708 794.708 1024 511.945 1024 229.2 1024 0 794.726 0 511.945 0 229.18 229.181 0 511.945 0 794.726 0 1024 229.2 1024 511.945z" p-id="2760"></path></svg>