<?xml version="1.0" standalone="no"?><!DOCTYPE svg PUBLIC "-//W3C//DTD SVG 1.1//EN" "http://www.w3.org/Graphics/SVG/1.1/DTD/svg11.dtd"><svg t="1591625479289" class="icon" viewBox="0 0 1024 1024" version="1.1" xmlns="http://www.w3.org/2000/svg" p-id="6413" xmlns:xlink="http://www.w3.org/1999/xlink" width="64" height="64"><defs><style type="text/css"></style></defs><path d="M818 252.1c-5.2-5.2-10.9-10.7-17.2-16.4-18.7-17.2-36.1-33.3-52.2-48.3-1.6-1-2.9-2.1-3.9-3.1-23.4-21.3-41.9-37.7-55.4-49.1-8.3-6.8-14.8-11.7-19.5-14.8-3.1-2.6-6-4.4-8.6-5.5-3.1-1.6-6.5-2.3-10.1-2.3-5.2 0-9.7 1.9-13.6 5.8-3.9 3.9-5.8 8.7-5.8 14.4v179.4H811l-20.3-19.5v598.1l20.3-19.5H291.7c-16.1 0-30-5.8-41.7-17.5-11.7-11.7-17.5-25.9-17.5-42.5V132.8l-20.3 20.3h359.5c5.2 0 9.7-1.9 13.6-5.8 3.9-3.9 5.8-8.6 5.8-14 0-5.5-1.9-10.1-5.8-14-3.9-3.9-8.4-5.8-13.6-5.8H191.9v697.9c0 27.6 9.7 51.1 29.2 70.6 19.5 19.5 43 29.2 70.6 29.2h539.6V272.4H651.2l20.3 20.3V132.8c0 5.2-1.9 9.7-5.8 13.6-3.9 3.9-8.4 5.8-13.6 5.8-2.6 0-4.9-0.5-7-1.6l1.6 1.6c3.6 2.6 9.4 7 17.2 13.3 13 11.4 30.9 27.6 53.8 48.3 1.6 1 2.9 2.1 3.9 3.1 16.1 14.6 33.5 30.7 52.2 48.3 6.2 5.2 12 10.4 17.2 15.6 3.1 2.6 5.2 4.7 6.2 6.2 4.2 3.6 9 5.5 14.4 5.5 5.5 0 10.1-2.1 14-6.2 3.9-4.2 5.7-9 5.5-14.4-0.3-5.5-2.2-10-5.8-13.6-2.3-1.5-4.7-3.6-7.3-6.2zM191.9 472h-79.5v339.2h798.5V472h-719z m82.6 194.9v84.2h-39V524.2h86.6c25.5 0 45.6 6.6 60.4 19.9 14.8 13.3 22.2 30.8 22.2 52.6s-7.3 39-21.8 51.5c-14.6 12.5-35.1 18.7-61.6 18.7h-46.8z m0-31.9h47.6c14 0 24.7-3.2 32-9.7 7.3-6.5 10.9-16 10.9-28.5s-3.6-22.4-10.9-29.6c-7.3-7.3-17.7-10.9-31.2-10.9h-48.3V635zM439 751.2v-227h67.1c20.3 0 38.2 4.4 53.8 13.3s27.7 21.6 36.3 38.2c8.6 16.6 12.9 35.4 12.9 56.1v11.7c0 21.3-4.3 40.2-12.9 56.5-8.6 16.4-20.8 29-36.6 37.8-15.9 8.8-34.2 13.3-55 13.3H439z m39.8-195V720h25.7c20.8 0 36.7-6.5 47.6-19.5 10.9-13 16.6-31.7 17.2-56.1v-12.5c0-24.4-5.3-43.1-16-56.1s-26.4-19.5-47.2-19.5h-27.3zM779 655.3h-91.2v95.9H648v-227h144.3v32H687.8v67.1H779v32z m0 0" p-id="6414"></path></svg>